<?xml version="1.0" encoding="utf-8"?>
<svg width="10px" height="15px" viewBox="0 0 10 15" version="1.1" xmlns:xlink="http://www.w3.org/1999/xlink" xmlns="http://www.w3.org/2000/svg">
  <desc>Created with Lunacy</desc>
  <g id="telephone" transform="translate(0.5 0.5)">
    <path d="M1.999 0L7.001 0Q7.0992 0 7.19694 0.00962573Q7.29467 0.0192515 7.39099 0.0384102Q7.4873 0.057569 7.58128 0.0860763Q7.67525 0.114584 7.76598 0.152165Q7.85671 0.189746 7.94332 0.236039Q8.02993 0.282333 8.11158 0.336892Q8.19324 0.391452 8.26915 0.453752Q8.34506 0.516052 8.41451 0.585494Q8.48395 0.654935 8.54625 0.730848Q8.60855 0.806761 8.66311 0.888415Q8.71767 0.970069 8.76396 1.05668Q8.81025 1.14329 8.84783 1.23402Q8.88542 1.32474 8.91392 1.41872Q8.94243 1.5127 8.96159 1.60901Q8.98075 1.70533 8.99037 1.80306Q9 1.9008 9 1.999L9 12.001Q9 12.0992 8.99037 12.1969Q8.98075 12.2947 8.96159 12.391Q8.94243 12.4873 8.91392 12.5813Q8.88542 12.6753 8.84783 12.766Q8.81025 12.8567 8.76396 12.9433Q8.71767 13.0299 8.66311 13.1116Q8.60855 13.1932 8.54625 13.2692Q8.48395 13.3451 8.41451 13.4145Q8.34506 13.4839 8.26915 13.5462Q8.19324 13.6085 8.11158 13.6631Q8.02993 13.7177 7.94332 13.764Q7.85671 13.8103 7.76598 13.8478Q7.67525 13.8854 7.58128 13.9139Q7.4873 13.9424 7.39098 13.9616Q7.29467 13.9807 7.19694 13.9904Q7.0992 14 7.001 14L1.999 14Q1.9008 14 1.80306 13.9904Q1.70533 13.9807 1.60901 13.9616Q1.5127 13.9424 1.41872 13.9139Q1.32474 13.8854 1.23402 13.8478Q1.14329 13.8103 1.05668 13.764Q0.970069 13.7177 0.888415 13.6631Q0.806761 13.6085 0.730848 13.5462Q0.654935 13.4839 0.585494 13.4145Q0.516052 13.3451 0.453752 13.2692Q0.391452 13.1932 0.336892 13.1116Q0.282333 13.0299 0.236039 12.9433Q0.189746 12.8567 0.152165 12.766Q0.114584 12.6753 0.0860763 12.5813Q0.057569 12.4873 0.0384102 12.391Q0.0192515 12.2947 0.00962573 12.1969Q0 12.0992 0 12.001L0 1.999Q0 1.9008 0.00962573 1.80306Q0.0192515 1.70533 0.0384102 1.60901Q0.057569 1.5127 0.0860763 1.41872Q0.114584 1.32474 0.152165 1.23402Q0.189746 1.14329 0.236039 1.05668Q0.282333 0.970069 0.336892 0.888415Q0.391452 0.806761 0.453752 0.730848Q0.516052 0.654935 0.585494 0.585494Q0.654935 0.516052 0.730848 0.453752Q0.806761 0.391452 0.888415 0.336892Q0.970069 0.282333 1.05668 0.236039Q1.14329 0.189746 1.23402 0.152165Q1.32474 0.114584 1.41872 0.0860763Q1.5127 0.057569 1.60901 0.0384102Q1.70533 0.0192515 1.80306 0.00962573Q1.9008 0 1.999 0Z" id="Rectangle-7" fill="none" stroke="#000000" stroke-width="1" />
    <path d="M0 0L9 0L9 1L0 1L0 0Z" transform="translate(0 11)" id="Rectangle-8" fill="#000000" stroke="none" />
    <path d="M0 0L9 0L9 1L0 1L0 0Z" transform="translate(0 1)" id="Rectangle-8-Copy" fill="#000000" stroke="none" />
  </g>
</svg>