<?xml version="1.0" encoding="utf-8"?>
<svg width="24px" height="24px" viewBox="0 0 24 24" version="1.1" xmlns:xlink="http://www.w3.org/1999/xlink" xmlns="http://www.w3.org/2000/svg">
  <desc>Created with Lunacy</desc>
  <defs>
    <path d="M10 20C15.5228 20 20 15.5228 20 10C20 4.47715 15.5228 0 10 0C4.47715 0 0 4.47715 0 10C0 15.5228 4.47715 20 10 20Z" id="path_1" />
    <clipPath id="clip_1">
      <use xlink:href="#path_1" />
    </clipPath>
  </defs>
  <g id="search">
    <path d="M6.245e-17 3.44169e-15L8.1 3.44169e-15C8.59706 3.44169e-15 9 0.223858 9 0.5C9 0.776142 8.59706 1 8.1 1L6.245e-17 1L6.245e-17 3.44169e-15Z" transform="matrix(0.7071068 0.7071068 -0.7071068 0.7071068 16.67163 15.96436)" id="Rectangle-3" fill="#000000" stroke="none" />
    <g id="Oval-2">
      <g clip-path="url(#clip_1)">
        <use xlink:href="#path_1" fill="none" stroke="#000000" stroke-width="2" />
      </g>
    </g>
  </g>
</svg>