<?xml version="1.0" encoding="utf-8"?>
<svg width="17px" height="17px" viewBox="0 0 17 17" version="1.1" xmlns:xlink="http://www.w3.org/1999/xlink" xmlns="http://www.w3.org/2000/svg">
  <desc>Created with Lunacy</desc>
  <path d="M15.7833 6.77071L9.59808 0.585458Q9.45886 0.44624 9.29515 0.336857Q9.13145 0.227474 8.94955 0.152129Q8.76766 0.0767848 8.57456 0.0383745Q8.38146 -3.57404e-05 8.18457 -3.58234e-05Q7.98769 -3.59064e-05 7.79459 0.0383743Q7.60148 0.0767844 7.41959 0.152129Q7.23769 0.227473 7.07399 0.336856Q6.91028 0.446239 6.77106 0.585458L0.585816 6.7707Q0.516375 6.84014 0.454074 6.91606Q0.391774 6.99197 0.337214 7.07362Q0.282655 7.15528 0.236362 7.24189Q0.190068 7.3285 0.152487 7.41922Q0.114906 7.50995 0.0863984 7.60393Q0.0578911 7.69791 0.0387323 7.79422Q0.0195735 7.89054 0.00994779 7.98827Q0.000322043 8.086 0.000322026 8.18421Q0.00032201 8.28241 0.00994773 8.38015Q0.0195734 8.47788 0.0387322 8.57419Q0.0578909 8.67051 0.0863982 8.76449Q0.114905 8.85846 0.152487 8.94919Q0.190068 9.03992 0.236361 9.12653Q0.282655 9.21314 0.337214 9.29479Q0.391774 9.37645 0.454074 9.45236Q0.516374 9.52828 0.585815 9.59772L6.77106 15.783Q6.91028 15.9222 7.07398 16.0316Q7.23768 16.1409 7.41958 16.2163Q7.60148 16.2916 7.79458 16.33Q7.98768 16.3685 8.18457 16.3685Q8.38145 16.3685 8.57455 16.33Q8.76765 16.2916 8.94955 16.2163Q9.13145 16.1409 9.29515 16.0316Q9.45886 15.9222 9.59807 15.783L15.7833 9.59772Q15.9225 9.4585 16.0319 9.2948Q16.1413 9.13109 16.2167 8.9492Q16.292 8.7673 16.3304 8.5742Q16.3688 8.3811 16.3688 8.18421Q16.3688 7.98733 16.3304 7.79423Q16.292 7.60113 16.2167 7.41923Q16.1413 7.23733 16.0319 7.07363Q15.9225 6.90992 15.7833 6.77071ZM5.03711 8.12849C5.03711 9.96562 6.49531 11.2203 8.4242 11.2203C10.0393 11.2203 10.8607 10.2703 11.2206 9.47273L9.61476 8.7558C9.45787 9.22181 8.97795 9.62508 8.4242 9.62508C7.52898 9.62508 6.92908 8.96192 6.92908 8.12849C6.92908 7.29506 7.52898 6.6319 8.4242 6.6319C8.97795 6.6319 9.45787 7.03517 9.61476 7.50118L11.2206 6.77528C10.8515 5.95081 10.0393 5.03673 8.4242 5.03673C6.49531 5.03673 5.03711 6.28239 5.03711 8.12849Z" id="Combined-Shape" fill="#000000" fill-rule="evenodd" stroke="none" />
</svg>